<svg width="40" height="40" viewBox="0 0 40 40" fill="none" xmlns="http://www.w3.org/2000/svg">
<rect width="40" height="40" rx="6" fill="white"/>
<path d="M18.9218 15.0206C19.6115 14.5363 20.5307 14.5363 21.2203 15.0206L31.6687 22.3565C32.803 23.153 32.8031 24.8338 31.6687 25.6302L21.2203 32.9662C20.5307 33.4504 19.6115 33.4504 18.9218 32.9662L8.47342 25.6302C7.33909 24.8338 7.33909 23.153 8.47342 22.3566L18.9218 15.0206Z" fill="#D6D6D6"/>
<path d="M18.9218 11.4883C19.6115 11.0041 20.5307 11.0041 21.2203 11.4883L31.6687 18.8243C32.803 19.6208 32.8031 21.3016 31.6687 22.098L21.2203 29.434C20.5307 29.9182 19.6115 29.9182 18.9218 29.434L8.47342 22.098C7.33909 21.3016 7.33909 19.6208 8.47342 18.8243L18.9218 11.4883Z" fill="#7D7D7D"/>
<path d="M18.9218 7.9561C19.6115 7.47188 20.5307 7.47188 21.2203 7.9561L31.6687 15.2921C32.803 16.0885 32.8031 17.7693 31.6687 18.5658L21.2203 25.9018C20.5307 26.386 19.6115 26.386 18.9218 25.9018L8.47342 18.5658C7.33909 17.7693 7.33909 16.0885 8.47342 15.2921L18.9218 7.9561Z" fill="#151515"/>
</svg>
